<?xml version="1.0" standalone="no"?><!DOCTYPE svg PUBLIC "-//W3C//DTD SVG 1.1//EN" "http://www.w3.org/Graphics/SVG/1.1/DTD/svg11.dtd"><svg t="1715741409206" class="icon" viewBox="0 0 1024 1024" version="1.1" xmlns="http://www.w3.org/2000/svg" p-id="56757" xmlns:xlink="http://www.w3.org/1999/xlink" width="128" height="128"><path d="M590.794105 13.473684c27.162947 0 49.906526 17.677474 56.643369 42.900211l1.347368 6.467368 9.377684 62.949053c31.258947 14.066526 60.416 32.013474 86.932211 53.194105l67.314526-26.138947a59.445895 59.445895 0 0 1 67.152842 20.156631l3.772632 5.766737 91.782737 154.947369c13.581474 23.983158 9.431579 51.631158-8.946527 69.362526l-4.904421 4.203789-65.42821 49.583158A404.48 404.48 0 0 1 895.191579 538.947368l66.074947 50.122106c20.641684 15.845053 27.432421 42.630737 17.785263 66.290526l-3.072 6.413474-92.591157 156.672c-9.539368 18.162526-29.480421 28.564211-50.229895 28.56421-4.634947 0-9.216-0.377263-13.850948-1.401263l-6.898526-2.048-73.296842-28.56421a405.827368 405.827368 0 0 1-79.818105 48.074105l-10.509474 71.356631c-3.988211 25.546105-24.953263 45.271579-51.307789 48.128l-6.682948 0.323369H405.557895c-27.162947 0-50.661053-18.432-56.805053-43.061895l-1.185684-6.251789-9.754947-65.967158a405.342316 405.342316 0 0 1-86.932211-50.122106l-66.883368 26.085053a59.445895 59.445895 0 0 1-67.152843-20.156632l-3.826526-5.820631-91.728842-154.947369c-13.581474-23.983158-9.485474-51.631158 8.946526-69.362526l4.850527-4.203789 57.290105-43.439158A403.671579 403.671579 0 0 1 91.621053 450.128842L35.139368 407.282526a56.535579 56.535579 0 0 1-16.922947-67.853473l3.072-5.712842 92.591158-155.75579c9.539368-18.216421 29.426526-28.564211 50.229895-28.56421 4.581053 0 9.162105 0.377263 13.850947 1.401263l6.898526 2.048 60.308211 23.390315a405.557895 405.557895 0 0 1 94.208-55.080421l8.192-59.230315c3.988211-25.546105 24.953263-45.217684 51.307789-48.074106L405.557895 13.473684h185.23621zM400.168421 286.989474H394.509474c-17.893053-1.077895-31.258947 7.221895-40.205474 24.953263L220.968421 620.759579c-8.784842 28.887579 0 44.570947 26.408421 47.104 17.623579 2.533053 29.534316-6.305684 35.84-26.408421l33.953684-75.452632h150.797474l32.067368 77.338948c6.305684 16.330105 18.216421 24.522105 35.84 24.522105 26.408421-2.533053 35.84-18.216421 28.294737-47.157895L435.900632 319.056842c-8.892632-20.156632-20.803368-30.827789-35.732211-32.067368z m274.270316 0h-5.712842c-21.935158-1.131789-33.253053 9.862737-34.007579 32.983579v310.16421c0 21.989053 7.922526 34.384842 23.605895 37.187369l4.958315 0.538947h5.389474c22.635789 0 33.953684-12.557474 33.953684-37.726316V326.602105c1.185684-25.330526-8.245895-38.588632-28.186947-39.612631z m-279.983158 101.861052l49.04421 116.84379h-101.861052l52.816842-116.897684z" fill="#ffffff" p-id="56758"></path></svg>